# xmcd
# 
# Track frame offsets:
#     150
#     20813
#     37625
#     51411
# 
# Disc length: 925
# 
# Revision: 0
# Processed by: cddbd v1.5.2PL0 Copyright (c) Steve Scherf et al.
# Submitted via: BonkEnc v1.0.15
# 
DISCID=2b039b04
DTITLE=The Drakes - EP
DYEAR=2012
DGENRE=
TTITLE0=What do I know?
TTITLE1=Wormwood
TTITLE2=Rain or shine
TTITLE3=Streets walk you home
EXTD=
EXTT0=
EXTT1=
EXTT2=
EXTT3=
PLAYORDER=
